<svg width="99" height="30" viewBox="0 0 99 30" fill="none" xmlns="http://www.w3.org/2000/svg">
<path d="M40.0154 9.63635H37.83V22H40.0154V9.63635Z" fill="black"/>
<path d="M41.5826 22H43.768V12.7273H41.5826V22ZM42.6814 11.4112C43.3756 11.4112 43.9431 10.88 43.9431 10.228C43.9431 9.56995 43.3756 9.0387 42.6814 9.0387C41.9811 9.0387 41.4136 9.56995 41.4136 10.228C41.4136 10.88 41.9811 11.4112 42.6814 11.4112Z" fill="black"/>
<path d="M47.5206 9.63635H45.3353V22H47.5206V9.63635Z" fill="black"/>
<path d="M59.3446 9.63635H57.117V18.0639H57.0083L51.1887 9.63635H49.1845V22H51.4242V13.5785H51.5268L57.3524 22H59.3446V9.63635Z" fill="black"/>
<path d="M65.0532 22.1811C67.7698 22.1811 69.4964 20.2674 69.4964 17.3998C69.4964 14.5263 67.7698 12.6065 65.0532 12.6065C62.3366 12.6065 60.61 14.5263 60.61 17.3998C60.61 20.2674 62.3366 22.1811 65.0532 22.1811ZM65.0653 20.4304C63.5621 20.4304 62.8256 19.0902 62.8256 17.3938C62.8256 15.6974 63.5621 14.3391 65.0653 14.3391C66.5443 14.3391 67.2808 15.6974 67.2808 17.3938C67.2808 19.0902 66.5443 20.4304 65.0653 20.4304Z" fill="black"/>
<path d="M75.3016 12.7273H73.4724V10.5057H71.287V12.7273H69.9709V14.4176H71.287V19.5731C71.2749 21.3178 72.5427 22.1751 74.1847 22.1268C74.8065 22.1087 75.2351 21.9879 75.4706 21.9094L75.1023 20.201C74.9816 20.2312 74.7341 20.2855 74.4624 20.2855C73.9131 20.2855 73.4724 20.0923 73.4724 19.2109V14.4176H75.3016V12.7273Z" fill="black"/>
<path d="M76.4492 22H78.6346V12.7273H76.4492V22ZM77.548 11.4112C78.2422 11.4112 78.8097 10.88 78.8097 10.228C78.8097 9.56995 78.2422 9.0387 77.548 9.0387C76.8477 9.0387 76.2802 9.56995 76.2802 10.228C76.2802 10.88 76.8477 11.4112 77.548 11.4112Z" fill="black"/>
<path d="M84.2466 22.1811C86.9632 22.1811 88.6898 20.2674 88.6898 17.3998C88.6898 14.5263 86.9632 12.6065 84.2466 12.6065C81.53 12.6065 79.8034 14.5263 79.8034 17.3998C79.8034 20.2674 81.53 22.1811 84.2466 22.1811ZM84.2587 20.4304C82.7555 20.4304 82.019 19.0902 82.019 17.3938C82.019 15.6974 82.7555 14.3391 84.2587 14.3391C85.7377 14.3391 86.4742 15.6974 86.4742 17.3938C86.4742 19.0902 85.7377 20.4304 84.2587 20.4304Z" fill="black"/>
<path d="M92.05 16.5668C92.05 15.2266 92.8589 14.4538 94.012 14.4538C95.1409 14.4538 95.817 15.1964 95.817 16.4339V22H98.0024V16.0959C98.0085 13.8743 96.7407 12.6065 94.827 12.6065C93.4385 12.6065 92.4847 13.2706 92.0621 14.3029H91.9534V12.7273H89.8646V22H92.05V16.5668Z" fill="black"/>
<path fill-rule="evenodd" clip-rule="evenodd" d="M7.5 0C3.35786 0 0 3.35786 0 7.5V30H22.5C26.6421 30 30 26.6421 30 22.5V0H7.5ZM9.49438 19.1142V11.1095L20.7883 23.8553H22.4329V10.48C22.4329 9.76901 22.5014 9.22937 22.6385 8.86105C22.7755 8.48416 23.0325 8.17579 23.4094 7.93595C23.7949 7.69611 24.206 7.57619 24.6429 7.57619V6.15H18.3856V7.57619C19.9874 7.57619 20.7883 8.52698 20.7883 10.4286V16.8143L11.2418 6.15H5.35714V7.57619C7.01889 7.57619 7.84977 8.46274 7.84977 10.2358V19.1271C7.84977 19.8894 7.79409 20.4505 7.68274 20.8102C7.57138 21.1614 7.31013 21.4741 6.89897 21.7482C6.48782 22.0137 6.00385 22.1465 5.44708 22.1465V23.5727H11.987V22.1465C11.2589 22.1465 10.6593 21.9623 10.1882 21.594C9.72566 21.2257 9.49438 20.3991 9.49438 19.1142Z" fill="black"/>
</svg>
