<svg width="32" height="32" viewBox="0 0 32 32" fill="none" xmlns="http://www.w3.org/2000/svg">
<path d="M0 7C0 3.13401 3.13401 0 7 0H32V25C32 28.866 28.866 32 25 32H0V7Z" fill="white"/>
<path fill-rule="evenodd" clip-rule="evenodd" d="M9 2C5.13401 2 2 5.13401 2 9V30H23C26.866 30 30 26.866 30 23V2H9ZM10.8614 19.8399V12.3689L21.4024 24.265H22.9374V11.7813C22.9374 11.1177 23.0013 10.6141 23.1292 10.2703C23.2572 9.91855 23.497 9.63074 23.8488 9.40689C24.2085 9.18304 24.5923 9.07111 25 9.07111V7.74H19.1599V9.07111C20.6549 9.07111 21.4024 9.95852 21.4024 11.7333V17.6934L12.4923 7.74H7V9.07111C8.55097 9.07111 9.32645 9.89856 9.32645 11.5535V19.8519C9.32645 20.5634 9.27448 21.0871 9.17055 21.4229C9.06662 21.7507 8.82278 22.0425 8.43904 22.2983C8.0553 22.5461 7.6036 22.67 7.08394 22.67V24.0012H13.1879V22.67C12.5083 22.67 11.9487 22.4982 11.509 22.1544C11.0773 21.8106 10.8614 21.0391 10.8614 19.8399Z" fill="black"/>
</svg>
