<svg width="102" height="30" viewBox="0 0 102 30" fill="none" xmlns="http://www.w3.org/2000/svg">
<path d="M41.6554 8.59766H39.47V20.9613H41.6554V8.59766Z" fill="black"/>
<path d="M43.3926 20.9613H45.578V11.6886H43.3926V20.9613ZM44.4913 10.3725C45.1856 10.3725 45.7531 9.84127 45.7531 9.18928C45.7531 8.53125 45.1856 8 44.4913 8C43.7911 8 43.2236 8.53125 43.2236 9.18928C43.2236 9.84127 43.7911 10.3725 44.4913 10.3725Z" fill="black"/>
<path d="M49.5006 8.59766H47.3152V20.9613H49.5006V8.59766Z" fill="black"/>
<path d="M61.4946 8.59766H59.267V17.0252H59.1583L53.3387 8.59766H51.3344V20.9613H53.5741V12.5398H53.6768L59.5024 20.9613H61.4946V8.59766Z" fill="black"/>
<path d="M67.3732 21.1424C70.0898 21.1424 71.8164 19.2287 71.8164 16.3612C71.8164 13.4876 70.0898 11.5678 67.3732 11.5678C64.6566 11.5678 62.93 13.4876 62.93 16.3612C62.93 19.2287 64.6566 21.1424 67.3732 21.1424ZM67.3853 19.3917C65.8821 19.3917 65.1456 18.0515 65.1456 16.3551C65.1456 14.6587 65.8821 13.3004 67.3853 13.3004C68.8643 13.3004 69.6008 14.6587 69.6008 16.3551C69.6008 18.0515 68.8643 19.3917 67.3853 19.3917Z" fill="black"/>
<path d="M77.7915 11.6886H75.9624V9.46697H73.777V11.6886H72.4609V13.3789H73.777V18.5344C73.7649 20.2791 75.0327 21.1364 76.6747 21.0881C77.2965 21.07 77.7251 20.9492 77.9606 20.8707L77.5923 19.1623C77.4716 19.1925 77.2241 19.2468 76.9524 19.2468C76.403 19.2468 75.9624 19.0536 75.9624 18.1722V13.3789H77.7915V11.6886Z" fill="black"/>
<path d="M79.1092 20.9613H81.2946V11.6886H79.1092V20.9613ZM80.2079 10.3725C80.9022 10.3725 81.4697 9.84127 81.4697 9.18928C81.4697 8.53125 80.9022 8 80.2079 8C79.5077 8 78.9402 8.53125 78.9402 9.18928C78.9402 9.84127 79.5077 10.3725 80.2079 10.3725Z" fill="black"/>
<path d="M87.0766 21.1424C89.7932 21.1424 91.5198 19.2287 91.5198 16.3612C91.5198 13.4876 89.7932 11.5678 87.0766 11.5678C84.36 11.5678 82.6334 13.4876 82.6334 16.3612C82.6334 19.2287 84.36 21.1424 87.0766 21.1424ZM87.0887 19.3917C85.5855 19.3917 84.849 18.0515 84.849 16.3551C84.849 14.6587 85.5855 13.3004 87.0887 13.3004C88.5677 13.3004 89.3042 14.6587 89.3042 16.3551C89.3042 18.0515 88.5677 19.3917 87.0887 19.3917Z" fill="black"/>
<path d="M95.05 15.5281C95.05 14.1879 95.8589 13.4151 97.012 13.4151C98.1409 13.4151 98.817 14.1577 98.817 15.3952V20.9613H101.002V15.0572C101.008 12.8356 99.7407 11.5678 97.827 11.5678C96.4385 11.5678 95.4846 12.2319 95.0621 13.2642H94.9534V11.6886H92.8646V20.9613H95.05V15.5281Z" fill="black"/>
<path fill-rule="evenodd" clip-rule="evenodd" d="M7.5 0C3.35786 0 0 3.35786 0 7.5V30H22.5C26.6421 30 30 26.6421 30 22.5V0H7.5ZM9.49438 19.1142V11.1095L20.7883 23.8553H22.4329V10.48C22.4329 9.76901 22.5014 9.22937 22.6385 8.86105C22.7755 8.48416 23.0325 8.17579 23.4094 7.93595C23.7949 7.69611 24.206 7.57619 24.6429 7.57619V6.15H18.3856V7.57619C19.9874 7.57619 20.7883 8.52698 20.7883 10.4286V16.8143L11.2418 6.15H5.35714V7.57619C7.01889 7.57619 7.84977 8.46274 7.84977 10.2358V19.1271C7.84977 19.8894 7.79409 20.4505 7.68274 20.8102C7.57138 21.1614 7.31013 21.4741 6.89897 21.7482C6.48782 22.0137 6.00385 22.1465 5.44708 22.1465V23.5727H11.987V22.1465C11.2589 22.1465 10.6593 21.9623 10.1882 21.594C9.72566 21.2257 9.49438 20.3991 9.49438 19.1142Z" fill="black"/>
</svg>
