<svg width="29" height="30" viewBox="0 0 29 30" fill="none" xmlns="http://www.w3.org/2000/svg">
<path d="M1.805 1.2942L18.405 0.0682012C20.444 -0.106799 20.968 0.0112012 22.25 0.943201L27.549 4.6762C28.423 5.3182 28.714 5.4932 28.714 6.1922V26.6652C28.714 27.9482 28.248 28.7072 26.617 28.8232L7.34 29.9902C6.116 30.0482 5.533 29.8732 4.892 29.0562L0.99 23.9822C0.29 23.0482 0 22.3492 0 21.5322V3.3342C0 2.2852 0.466 1.4102 1.805 1.2942Z" fill="white"/>
<path fill-rule="evenodd" clip-rule="evenodd" d="M18.405 0.0682012L1.805 1.2942C0.466 1.4102 0 2.2852 0 3.3342V21.5322C0 22.3492 0.29 23.0482 0.99 23.9822L4.892 29.0562C5.533 29.8732 6.116 30.0482 7.34 29.9902L26.617 28.8232C28.247 28.7072 28.714 27.9482 28.714 26.6652V6.1922C28.714 5.5292 28.452 5.3382 27.681 4.7722C27.6366 4.74024 27.5923 4.70824 27.548 4.6762L22.25 0.943201C20.968 0.0112012 20.444 -0.106799 18.405 0.0682012V0.0682012ZM7.776 5.8572C6.202 5.9632 5.845 5.9872 4.951 5.2602L2.678 3.4522C2.447 3.2182 2.563 2.9262 3.145 2.8682L19.103 1.7022C20.443 1.5852 21.141 2.0522 21.665 2.4602L24.402 4.4432C24.519 4.5022 24.81 4.8512 24.46 4.8512L7.98 5.8432L7.776 5.8572V5.8572ZM5.941 26.4902V9.1102C5.941 8.3512 6.174 8.0012 6.872 7.9422L25.8 6.8342C26.442 6.7762 26.732 7.1842 26.732 7.9422V25.2062C26.732 25.9652 26.615 26.6072 25.567 26.6652L7.454 27.7152C6.406 27.7732 5.941 27.4242 5.941 26.4902V26.4902ZM23.821 10.0422C23.937 10.5672 23.821 11.0922 23.296 11.1522L22.423 11.3252V24.1572C21.665 24.5652 20.967 24.7982 20.384 24.7982C19.452 24.7982 19.219 24.5062 18.521 23.6322L12.812 14.6502V23.3402L14.618 23.7492C14.618 23.7492 14.618 24.7992 13.161 24.7992L9.144 25.0322C9.027 24.7982 9.144 24.2152 9.551 24.0992L10.6 23.8082V12.3182L9.144 12.2002C9.027 11.6752 9.318 10.9172 10.134 10.8582L14.444 10.5682L20.384 19.6662V11.6172L18.87 11.4432C18.753 10.8002 19.219 10.3332 19.801 10.2762L23.821 10.0422V10.0422Z" fill="black"/>
</svg>
